<mxfile host="app.diagrams.net" modified="2023-11-15T09:43:48.750Z" agent="Mozilla/5.0 (Windows NT 10.0; Win64; x64) AppleWebKit/537.36 (KHTML, like Gecko) Chrome/119.0.0.0 Safari/537.36" etag="TdkjYihKjWzZSHhL4JaV" version="22.1.1" type="device">
  <diagram name="Page-1" id="bgg_bEi0NzRaX4LveNAh">
    <mxGraphModel dx="994" dy="1124" grid="1" gridSize="10" guides="1" tooltips="1" connect="1" arrows="1" fold="1" page="1" pageScale="1" pageWidth="1169" pageHeight="827" math="0" shadow="0">
      <root>
        <mxCell id="0" />
        <mxCell id="1" parent="0" />
        <mxCell id="9fmq9i5cp-J92g3-T_ne-1" value="" style="image;aspect=fixed;perimeter=ellipsePerimeter;html=1;align=center;shadow=0;dashed=0;spacingTop=3;image=img/lib/active_directory/user.svg;" parent="1" vertex="1">
          <mxGeometry x="50" y="390" width="51.8" height="140" as="geometry" />
        </mxCell>
        <mxCell id="9fmq9i5cp-J92g3-T_ne-2" value="&lt;font size=&quot;1&quot; style=&quot;&quot;&gt;&lt;b style=&quot;font-size: 14px;&quot;&gt;MelodyLover&lt;/b&gt;&lt;/font&gt;" style="text;html=1;strokeColor=none;fillColor=none;align=center;verticalAlign=middle;whiteSpace=wrap;rounded=0;" parent="1" vertex="1">
          <mxGeometry x="50" y="550" width="60" height="30" as="geometry" />
        </mxCell>
        <mxCell id="9fmq9i5cp-J92g3-T_ne-5" value="&lt;font style=&quot;font-size: 14px;&quot;&gt;Login&lt;/font&gt;" style="strokeWidth=2;html=1;shape=mxgraph.flowchart.start_1;whiteSpace=wrap;fillColor=#dae8fc;strokeColor=#6c8ebf;" parent="1" vertex="1">
          <mxGeometry x="310" y="100" width="130" height="60" as="geometry" />
        </mxCell>
        <mxCell id="9fmq9i5cp-J92g3-T_ne-6" value="&lt;font style=&quot;font-size: 14px;&quot;&gt;Register&lt;/font&gt;" style="strokeWidth=2;html=1;shape=mxgraph.flowchart.start_1;whiteSpace=wrap;fillColor=#dae8fc;strokeColor=#6c8ebf;" parent="1" vertex="1">
          <mxGeometry x="310" y="170" width="130" height="60" as="geometry" />
        </mxCell>
        <mxCell id="9fmq9i5cp-J92g3-T_ne-7" value="&lt;font style=&quot;font-size: 14px;&quot;&gt;Associate account with various music stores/ music streaming services&lt;/font&gt;" style="strokeWidth=2;html=1;shape=mxgraph.flowchart.start_1;whiteSpace=wrap;fillColor=#dae8fc;strokeColor=#6c8ebf;" parent="1" vertex="1">
          <mxGeometry x="310" y="250" width="130" height="80" as="geometry" />
        </mxCell>
        <mxCell id="9fmq9i5cp-J92g3-T_ne-8" value="&lt;font style=&quot;font-size: 14px;&quot;&gt;Describe music preference&lt;/font&gt;" style="strokeWidth=2;html=1;shape=mxgraph.flowchart.start_1;whiteSpace=wrap;fillColor=#dae8fc;strokeColor=#6c8ebf;" parent="1" vertex="1">
          <mxGeometry x="310" y="340" width="130" height="80" as="geometry" />
        </mxCell>
        <mxCell id="9fmq9i5cp-J92g3-T_ne-9" value="&lt;font style=&quot;font-size: 14px;&quot;&gt;View Recommandation&lt;/font&gt;" style="strokeWidth=2;html=1;shape=mxgraph.flowchart.start_1;whiteSpace=wrap;fillColor=#dae8fc;strokeColor=#6c8ebf;" parent="1" vertex="1">
          <mxGeometry x="310" y="440" width="130" height="80" as="geometry" />
        </mxCell>
        <mxCell id="9fmq9i5cp-J92g3-T_ne-10" value="&lt;font style=&quot;font-size: 14px;&quot;&gt;Create one/multiple Playlist/Playlists&lt;/font&gt;" style="strokeWidth=2;html=1;shape=mxgraph.flowchart.start_1;whiteSpace=wrap;fillColor=#dae8fc;strokeColor=#6c8ebf;" parent="1" vertex="1">
          <mxGeometry x="310" y="540" width="130" height="80" as="geometry" />
        </mxCell>
        <mxCell id="9fmq9i5cp-J92g3-T_ne-11" value="&lt;font style=&quot;font-size: 14px;&quot;&gt;Share Playlist/Playlists on various Social Media Platforms&lt;/font&gt;" style="strokeWidth=2;html=1;shape=mxgraph.flowchart.start_1;whiteSpace=wrap;fillColor=#dae8fc;strokeColor=#6c8ebf;" parent="1" vertex="1">
          <mxGeometry x="310" y="640" width="130" height="80" as="geometry" />
        </mxCell>
        <mxCell id="9fmq9i5cp-J92g3-T_ne-12" value="" style="outlineConnect=0;dashed=0;verticalLabelPosition=bottom;verticalAlign=top;align=center;html=1;shape=image;fillColor=#dae8fc;strokeColor=#6c8ebf;labelBackgroundColor=default;image=img/lib/clip_art/computers/Secure_System_128x128.png;" parent="1" vertex="1">
          <mxGeometry x="720.5" y="100" width="85" height="100" as="geometry" />
        </mxCell>
        <mxCell id="9fmq9i5cp-J92g3-T_ne-13" value="&lt;b&gt;&lt;font style=&quot;font-size: 14px;&quot;&gt;User Service&lt;/font&gt;&lt;/b&gt;" style="text;html=1;strokeColor=none;fillColor=none;align=center;verticalAlign=middle;whiteSpace=wrap;rounded=0;" parent="1" vertex="1">
          <mxGeometry x="733" y="210" width="60" height="30" as="geometry" />
        </mxCell>
        <mxCell id="9fmq9i5cp-J92g3-T_ne-15" value="" style="endArrow=none;html=1;rounded=0;exitX=1;exitY=0.5;exitDx=0;exitDy=0;entryX=0.015;entryY=0.667;entryDx=0;entryDy=0;entryPerimeter=0;fillColor=#dae8fc;strokeColor=#6c8ebf;" parent="1" source="9fmq9i5cp-J92g3-T_ne-1" target="9fmq9i5cp-J92g3-T_ne-5" edge="1">
          <mxGeometry width="50" height="50" relative="1" as="geometry">
            <mxPoint x="470" y="470" as="sourcePoint" />
            <mxPoint x="520" y="420" as="targetPoint" />
          </mxGeometry>
        </mxCell>
        <mxCell id="9fmq9i5cp-J92g3-T_ne-16" value="" style="endArrow=none;html=1;rounded=0;exitX=1;exitY=0.5;exitDx=0;exitDy=0;entryX=0.008;entryY=0.633;entryDx=0;entryDy=0;entryPerimeter=0;fillColor=#dae8fc;strokeColor=#6c8ebf;" parent="1" source="9fmq9i5cp-J92g3-T_ne-1" target="9fmq9i5cp-J92g3-T_ne-6" edge="1">
          <mxGeometry width="50" height="50" relative="1" as="geometry">
            <mxPoint x="470" y="470" as="sourcePoint" />
            <mxPoint x="520" y="420" as="targetPoint" />
          </mxGeometry>
        </mxCell>
        <mxCell id="9fmq9i5cp-J92g3-T_ne-17" value="" style="endArrow=none;html=1;rounded=0;exitX=1;exitY=0.75;exitDx=0;exitDy=0;entryX=0;entryY=0.613;entryDx=0;entryDy=0;entryPerimeter=0;fillColor=#dae8fc;strokeColor=#6c8ebf;" parent="1" source="9fmq9i5cp-J92g3-T_ne-1" target="9fmq9i5cp-J92g3-T_ne-7" edge="1">
          <mxGeometry width="50" height="50" relative="1" as="geometry">
            <mxPoint x="470" y="470" as="sourcePoint" />
            <mxPoint x="520" y="420" as="targetPoint" />
          </mxGeometry>
        </mxCell>
        <mxCell id="9fmq9i5cp-J92g3-T_ne-18" value="" style="endArrow=none;html=1;rounded=0;exitX=0.985;exitY=0.383;exitDx=0;exitDy=0;exitPerimeter=0;fillColor=#dae8fc;strokeColor=#6c8ebf;" parent="1" source="9fmq9i5cp-J92g3-T_ne-5" target="9fmq9i5cp-J92g3-T_ne-12" edge="1">
          <mxGeometry width="50" height="50" relative="1" as="geometry">
            <mxPoint x="470" y="470" as="sourcePoint" />
            <mxPoint x="520" y="420" as="targetPoint" />
          </mxGeometry>
        </mxCell>
        <mxCell id="9fmq9i5cp-J92g3-T_ne-19" value="" style="endArrow=none;html=1;rounded=0;exitX=1;exitY=0.5;exitDx=0;exitDy=0;exitPerimeter=0;fillColor=#dae8fc;strokeColor=#6c8ebf;" parent="1" source="9fmq9i5cp-J92g3-T_ne-6" target="9fmq9i5cp-J92g3-T_ne-12" edge="1">
          <mxGeometry width="50" height="50" relative="1" as="geometry">
            <mxPoint x="470" y="470" as="sourcePoint" />
            <mxPoint x="520" y="420" as="targetPoint" />
          </mxGeometry>
        </mxCell>
        <mxCell id="9fmq9i5cp-J92g3-T_ne-20" value="" style="endArrow=none;html=1;rounded=0;exitX=1;exitY=0.4;exitDx=0;exitDy=0;exitPerimeter=0;fillColor=#dae8fc;strokeColor=#6c8ebf;" parent="1" source="9fmq9i5cp-J92g3-T_ne-7" target="9fmq9i5cp-J92g3-T_ne-12" edge="1">
          <mxGeometry width="50" height="50" relative="1" as="geometry">
            <mxPoint x="470" y="470" as="sourcePoint" />
            <mxPoint x="520" y="420" as="targetPoint" />
          </mxGeometry>
        </mxCell>
        <mxCell id="9fmq9i5cp-J92g3-T_ne-21" value="" style="endArrow=none;html=1;rounded=0;entryX=1;entryY=0.5;entryDx=0;entryDy=0;entryPerimeter=0;fillColor=#dae8fc;strokeColor=#6c8ebf;" parent="1" target="9fmq9i5cp-J92g3-T_ne-8" edge="1">
          <mxGeometry width="50" height="50" relative="1" as="geometry">
            <mxPoint x="720" y="410" as="sourcePoint" />
            <mxPoint x="520" y="420" as="targetPoint" />
          </mxGeometry>
        </mxCell>
        <mxCell id="9fmq9i5cp-J92g3-T_ne-22" value="" style="outlineConnect=0;dashed=0;verticalLabelPosition=bottom;verticalAlign=top;align=center;html=1;shape=image;fillColor=#dae8fc;strokeColor=#6c8ebf;labelBackgroundColor=default;image=img/lib/clip_art/computers/Secure_System_128x128.png;" parent="1" vertex="1">
          <mxGeometry x="720.5" y="350" width="85" height="100" as="geometry" />
        </mxCell>
        <mxCell id="9fmq9i5cp-J92g3-T_ne-23" value="&lt;b&gt;&lt;font style=&quot;font-size: 14px;&quot;&gt;Recommendation Service&lt;/font&gt;&lt;/b&gt;" style="text;html=1;strokeColor=none;fillColor=none;align=center;verticalAlign=middle;whiteSpace=wrap;rounded=0;" parent="1" vertex="1">
          <mxGeometry x="733" y="460" width="60" height="30" as="geometry" />
        </mxCell>
        <mxCell id="9fmq9i5cp-J92g3-T_ne-24" value="" style="endArrow=none;html=1;rounded=0;exitX=1.008;exitY=0.4;exitDx=0;exitDy=0;exitPerimeter=0;entryX=0;entryY=1;entryDx=0;entryDy=0;entryPerimeter=0;fillColor=#dae8fc;strokeColor=#6c8ebf;" parent="1" source="9fmq9i5cp-J92g3-T_ne-9" target="9fmq9i5cp-J92g3-T_ne-22" edge="1">
          <mxGeometry width="50" height="50" relative="1" as="geometry">
            <mxPoint x="470" y="470" as="sourcePoint" />
            <mxPoint x="520" y="420" as="targetPoint" />
          </mxGeometry>
        </mxCell>
        <mxCell id="9fmq9i5cp-J92g3-T_ne-27" value="" style="outlineConnect=0;dashed=0;verticalLabelPosition=bottom;verticalAlign=top;align=center;html=1;shape=image;fillColor=#dae8fc;strokeColor=#6c8ebf;labelBackgroundColor=default;image=img/lib/clip_art/computers/Secure_System_128x128.png;" parent="1" vertex="1">
          <mxGeometry x="720.5" y="550" width="85" height="100" as="geometry" />
        </mxCell>
        <mxCell id="9fmq9i5cp-J92g3-T_ne-28" value="&lt;b&gt;&lt;font style=&quot;font-size: 14px;&quot;&gt;Playlist Service&lt;/font&gt;&lt;/b&gt;" style="text;html=1;strokeColor=none;fillColor=none;align=center;verticalAlign=middle;whiteSpace=wrap;rounded=0;" parent="1" vertex="1">
          <mxGeometry x="733" y="660" width="60" height="30" as="geometry" />
        </mxCell>
        <mxCell id="9fmq9i5cp-J92g3-T_ne-29" value="" style="endArrow=none;html=1;rounded=0;exitX=1;exitY=0.5;exitDx=0;exitDy=0;exitPerimeter=0;fillColor=#dae8fc;strokeColor=#6c8ebf;" parent="1" source="9fmq9i5cp-J92g3-T_ne-10" target="9fmq9i5cp-J92g3-T_ne-27" edge="1">
          <mxGeometry width="50" height="50" relative="1" as="geometry">
            <mxPoint x="470" y="470" as="sourcePoint" />
            <mxPoint x="520" y="420" as="targetPoint" />
          </mxGeometry>
        </mxCell>
        <mxCell id="9fmq9i5cp-J92g3-T_ne-30" value="" style="endArrow=none;html=1;rounded=0;exitX=1;exitY=0.5;exitDx=0;exitDy=0;exitPerimeter=0;fillColor=#dae8fc;strokeColor=#6c8ebf;" parent="1" source="9fmq9i5cp-J92g3-T_ne-11" target="9fmq9i5cp-J92g3-T_ne-27" edge="1">
          <mxGeometry width="50" height="50" relative="1" as="geometry">
            <mxPoint x="470" y="470" as="sourcePoint" />
            <mxPoint x="520" y="420" as="targetPoint" />
          </mxGeometry>
        </mxCell>
        <mxCell id="9fmq9i5cp-J92g3-T_ne-31" value="" style="endArrow=none;html=1;rounded=0;exitX=1;exitY=1;exitDx=0;exitDy=0;entryX=0.008;entryY=0.613;entryDx=0;entryDy=0;entryPerimeter=0;fillColor=#dae8fc;strokeColor=#6c8ebf;" parent="1" source="9fmq9i5cp-J92g3-T_ne-1" target="9fmq9i5cp-J92g3-T_ne-8" edge="1">
          <mxGeometry width="50" height="50" relative="1" as="geometry">
            <mxPoint x="470" y="470" as="sourcePoint" />
            <mxPoint x="520" y="420" as="targetPoint" />
          </mxGeometry>
        </mxCell>
        <mxCell id="9fmq9i5cp-J92g3-T_ne-32" value="" style="endArrow=none;html=1;rounded=0;exitX=1;exitY=1;exitDx=0;exitDy=0;entryX=0.054;entryY=0.288;entryDx=0;entryDy=0;entryPerimeter=0;fillColor=#dae8fc;strokeColor=#6c8ebf;" parent="1" source="9fmq9i5cp-J92g3-T_ne-1" target="9fmq9i5cp-J92g3-T_ne-9" edge="1">
          <mxGeometry width="50" height="50" relative="1" as="geometry">
            <mxPoint x="470" y="470" as="sourcePoint" />
            <mxPoint x="520" y="420" as="targetPoint" />
          </mxGeometry>
        </mxCell>
        <mxCell id="9fmq9i5cp-J92g3-T_ne-33" value="" style="endArrow=none;html=1;rounded=0;entryX=0;entryY=0.5;entryDx=0;entryDy=0;entryPerimeter=0;fillColor=#dae8fc;strokeColor=#6c8ebf;" parent="1" target="9fmq9i5cp-J92g3-T_ne-10" edge="1">
          <mxGeometry width="50" height="50" relative="1" as="geometry">
            <mxPoint x="90" y="520" as="sourcePoint" />
            <mxPoint x="520" y="420" as="targetPoint" />
          </mxGeometry>
        </mxCell>
        <mxCell id="9fmq9i5cp-J92g3-T_ne-34" value="" style="endArrow=none;html=1;rounded=0;exitX=0.75;exitY=1;exitDx=0;exitDy=0;entryX=0;entryY=0.5;entryDx=0;entryDy=0;entryPerimeter=0;fillColor=#dae8fc;strokeColor=#6c8ebf;" parent="1" source="9fmq9i5cp-J92g3-T_ne-1" target="9fmq9i5cp-J92g3-T_ne-11" edge="1">
          <mxGeometry width="50" height="50" relative="1" as="geometry">
            <mxPoint x="470" y="470" as="sourcePoint" />
            <mxPoint x="520" y="420" as="targetPoint" />
          </mxGeometry>
        </mxCell>
        <mxCell id="9fmq9i5cp-J92g3-T_ne-36" value="&lt;font style=&quot;font-size: 25px;&quot;&gt;&lt;br&gt;&lt;b style=&quot;border-color: var(--border-color); color: rgb(68, 31, 255); font-family: Helvetica; font-style: normal; font-variant-ligatures: normal; font-variant-caps: normal; letter-spacing: normal; orphans: 2; text-indent: 0px; text-transform: none; widows: 2; word-spacing: 0px; -webkit-text-stroke-width: 0px; background-color: rgb(251, 251, 251); text-decoration-thickness: initial; text-decoration-style: initial; text-decoration-color: initial;&quot;&gt;Use Case Diagram&lt;/b&gt;&lt;br&gt;&lt;/font&gt;" style="text;strokeColor=none;fillColor=none;html=1;fontSize=24;fontStyle=1;verticalAlign=middle;align=center;" parent="1" vertex="1">
          <mxGeometry x="100" y="30" width="140" height="40" as="geometry" />
        </mxCell>
      </root>
    </mxGraphModel>
  </diagram>
</mxfile>
